<svg width="150" height="25" viewBox="0 0 452 78" fill="none" xmlns="http://www.w3.org/2000/svg">
<path d="M0.343262 37.2755V64.5583C0.343262 65.3867 1.01483 66.0583 1.84326 66.0583H54.1865C55.0149 66.0583 55.6865 65.3867 55.6865 64.5583V11.2329C55.6865 10.0738 54.4279 9.35266 53.428 9.93878L36.4371 19.8977C36.207 20.0326 35.9452 20.1036 35.6785 20.1036H15.9985C15.5742 20.1036 15.1697 20.2833 14.8853 20.5982L0.730108 36.2701C0.481108 36.5458 0.343262 36.904 0.343262 37.2755Z" fill="#E7798C"/>
<path d="M0.343262 47.2637V64.5622C0.343262 65.3906 1.01483 66.0622 1.84326 66.0622H54.1865C55.0149 66.0622 55.6865 65.3906 55.6865 64.5622V27.4422C55.6865 26.331 54.5205 25.6056 53.5237 26.0965L36.3169 34.5717C36.1639 34.6471 35.9992 34.6958 35.8299 34.7158L16.7948 36.9621C16.5905 36.9862 16.3933 37.052 16.2155 37.1556L1.08824 45.9676C0.626971 46.2363 0.343262 46.7299 0.343262 47.2637Z" fill="#9BAEC7"/>
<path d="M0.343262 56.6512V64.557C0.343262 65.3854 1.01483 66.057 1.84326 66.057H54.1865C55.0149 66.057 55.6865 65.3854 55.6865 64.557V46.1498C55.6865 45.1571 54.7394 44.4382 53.7832 44.705L36.2514 49.5984C36.1413 49.6291 36.0281 49.6472 35.914 49.6522L15.5424 50.5472C15.4029 50.5533 15.2648 50.5789 15.1323 50.6232L1.36733 55.2287C0.75563 55.4333 0.343262 56.0061 0.343262 56.6512Z" fill="#FFBA5B"/>
<path d="M98.2807 63.0369C94.9949 63.0369 91.9318 62.5744 89.0915 61.6495C86.3069 60.6668 83.8565 59.2217 81.7402 57.3141C79.6796 55.4065 78.0367 53.0076 76.8114 50.1173C75.6419 47.2271 75.0571 43.8454 75.0571 39.9725C75.0571 36.1573 75.6419 32.8913 76.8114 30.1744C78.0367 27.3998 79.6239 25.1454 81.5731 23.4112C83.5223 21.6192 85.75 20.3186 88.2562 19.5093C90.7623 18.6423 93.3241 18.2087 95.9417 18.2087C98.8934 18.2087 101.567 18.6712 103.961 19.596C106.412 20.5209 108.5 21.7927 110.227 23.4112C112.009 25.0298 113.373 26.9662 114.32 29.2207C115.323 31.4751 115.824 33.9318 115.824 36.5909C115.824 38.5562 115.295 40.0592 114.237 41.0997C113.178 42.1402 111.703 42.8049 109.809 43.094L89.1751 46.3022C89.7877 48.2097 91.0408 49.6549 92.9343 50.6376C94.8278 51.5625 96.9998 52.0249 99.4503 52.0249C101.734 52.0249 103.878 51.7359 105.883 51.1578C107.943 50.522 109.614 49.7994 110.895 48.9901C111.786 49.5682 112.538 50.3775 113.151 51.418C113.763 52.4585 114.069 53.5568 114.069 54.7129C114.069 57.3141 112.9 59.2506 110.561 60.5223C108.779 61.505 106.774 62.1698 104.546 62.5166C102.318 62.8634 100.23 63.0369 98.2807 63.0369ZM95.9417 28.9605C94.6051 28.9605 93.4355 29.1918 92.4331 29.6542C91.4863 30.1166 90.7066 30.7236 90.094 31.4751C89.4814 32.1687 89.008 32.978 88.6739 33.9029C88.3954 34.77 88.2283 35.666 88.1726 36.5909L102.458 34.163C102.291 33.0069 101.678 31.8508 100.62 30.6947C99.5617 29.5386 98.0023 28.9605 95.9417 28.9605Z" fill="#1F2B3A"/>
<path d="M120.905 40.5794C120.905 36.7643 121.462 33.4694 122.576 30.6947C123.69 27.8622 125.221 25.5211 127.171 23.6713C129.176 21.8216 131.487 20.4631 134.104 19.596C136.777 18.6712 139.646 18.2087 142.709 18.2087C143.823 18.2087 144.909 18.3243 145.967 18.5556C147.025 18.729 147.888 18.9602 148.556 19.2492V5.20249C149.113 5.02907 150.004 4.85566 151.23 4.68224C152.455 4.45102 153.708 4.33541 154.989 4.33541C156.214 4.33541 157.3 4.42212 158.247 4.59553C159.249 4.76895 160.085 5.11578 160.753 5.63603C161.421 6.15628 161.922 6.87885 162.257 7.80373C162.591 8.67082 162.758 9.82693 162.758 11.2721V52.3717C162.758 55.0886 161.533 57.2563 159.082 58.8749C157.467 59.9732 155.379 60.927 152.817 61.7362C150.255 62.6033 147.303 63.0369 143.962 63.0369C140.342 63.0369 137.084 62.5166 134.188 61.4761C131.347 60.4356 128.925 58.9327 126.92 56.9673C124.971 55.0019 123.467 52.6608 122.409 49.9439C121.406 47.1693 120.905 44.0478 120.905 40.5794ZM144.63 29.7409C141.623 29.7409 139.311 30.6369 137.696 32.4289C136.081 34.2208 135.274 36.9377 135.274 40.5794C135.274 44.1634 136.026 46.8802 137.529 48.73C139.033 50.522 141.205 51.418 144.045 51.418C145.048 51.418 145.939 51.2734 146.719 50.9844C147.554 50.6376 148.194 50.2618 148.64 49.8572V30.7814C147.526 30.0877 146.189 29.7409 144.63 29.7409Z" fill="#1F2B3A"/>
<path d="M205.858 49.0768C205.858 53.47 204.271 56.9095 201.097 59.3951C197.922 61.8807 193.244 63.1236 187.062 63.1236C184.723 63.1236 182.551 62.9501 180.546 62.6033C178.541 62.2565 176.815 61.7362 175.367 61.0426C173.975 60.2911 172.861 59.3662 172.025 58.2679C171.246 57.1696 170.856 55.869 170.856 54.366C170.856 52.9787 171.134 51.8226 171.691 50.8977C172.248 49.915 172.916 49.1057 173.696 48.4699C175.311 49.3948 177.149 50.2329 179.21 50.9844C181.326 51.6781 183.749 52.0249 186.477 52.0249C188.204 52.0249 189.513 51.7648 190.404 51.2445C191.351 50.7243 191.824 50.0306 191.824 49.1635C191.824 48.3543 191.49 47.7184 190.821 47.256C190.153 46.7935 189.039 46.4178 187.48 46.1287L184.974 45.6085C180.129 44.6258 176.509 43.094 174.114 41.013C171.775 38.8742 170.605 35.8394 170.605 31.9086C170.605 29.7698 171.051 27.8333 171.942 26.0992C172.833 24.365 174.086 22.9199 175.701 21.7638C177.316 20.6076 179.237 19.7117 181.465 19.0758C183.749 18.4399 186.255 18.122 188.984 18.122C191.044 18.122 192.966 18.2954 194.748 18.6423C196.586 18.9313 198.173 19.3937 199.509 20.0296C200.846 20.6654 201.904 21.5036 202.684 22.5441C203.464 23.5268 203.853 24.7118 203.853 26.0992C203.853 27.4287 203.603 28.5848 203.102 29.5675C202.656 30.4924 202.071 31.2728 201.347 31.9086C200.902 31.6196 200.233 31.3306 199.342 31.0415C198.451 30.6947 197.477 30.4057 196.419 30.1744C195.36 29.8854 194.274 29.6542 193.161 29.4808C192.102 29.3074 191.128 29.2207 190.237 29.2207C188.399 29.2207 186.979 29.4519 185.976 29.9143C184.974 30.319 184.473 30.9837 184.473 31.9086C184.473 32.5445 184.751 33.0647 185.308 33.4694C185.865 33.874 186.923 34.2497 188.482 34.5966L191.072 35.2035C196.419 36.4752 200.206 38.2383 202.433 40.4927C204.717 42.6893 205.858 45.5507 205.858 49.0768Z" fill="#1F2B3A"/>
<path d="M212.39 7.80373C212.39 5.60713 213.086 3.75735 214.478 2.25441C215.926 0.75147 217.82 0 220.159 0C222.498 0 224.364 0.75147 225.756 2.25441C227.204 3.75735 227.928 5.60713 227.928 7.80373C227.928 10.0003 227.204 11.8501 225.756 13.3531C224.364 14.856 222.498 15.6075 220.159 15.6075C217.82 15.6075 215.926 14.856 214.478 13.3531C213.086 11.8501 212.39 10.0003 212.39 7.80373ZM227.26 61.5628C226.647 61.6784 225.728 61.8229 224.503 61.9963C223.333 62.2276 222.136 62.3432 220.911 62.3432C219.686 62.3432 218.572 62.2565 217.569 62.0831C216.623 61.9096 215.815 61.5628 215.147 61.0426C214.478 60.5223 213.949 59.8286 213.559 58.9616C213.225 58.0367 213.058 56.8517 213.058 55.4065V20.1163C213.671 20.0007 214.562 19.8562 215.731 19.6828C216.957 19.4515 218.182 19.3359 219.407 19.3359C220.632 19.3359 221.718 19.4226 222.665 19.596C223.668 19.7695 224.503 20.1163 225.171 20.6365C225.84 21.1568 226.341 21.8794 226.675 22.8043C227.065 23.6713 227.26 24.8274 227.26 26.2726V61.5628Z" fill="#1F2B3A"/>
<path d="M256.099 18.2087C259.274 18.2087 262.142 18.6423 264.704 19.5093C267.321 20.3186 269.521 21.388 271.303 22.7175C272.417 23.5268 273.28 24.4228 273.893 25.4055C274.561 26.3882 274.895 27.6599 274.895 29.2207V59.5685C274.895 62.6322 274.339 65.2624 273.225 67.459C272.111 69.7134 270.579 71.5632 268.63 73.0083C266.737 74.5112 264.481 75.6095 261.863 76.3032C259.302 76.9969 256.545 77.3437 253.593 77.3437C248.525 77.3437 244.543 76.6211 241.647 75.176C238.751 73.7887 237.303 71.5053 237.303 68.326C237.303 66.9965 237.554 65.8115 238.055 64.771C238.612 63.7883 239.225 63.0368 239.893 62.5166C241.508 63.4415 243.318 64.2219 245.323 64.8577C247.384 65.4936 249.5 65.8115 251.672 65.8115C254.679 65.8115 257.074 65.2913 258.856 64.2508C260.638 63.2103 261.529 61.5339 261.529 59.2217V57.8344C259.246 58.8749 256.461 59.3951 253.176 59.3951C250.669 59.3951 248.275 59.0194 245.991 58.2679C243.764 57.4586 241.786 56.2447 240.06 54.6262C238.389 52.9498 237.025 50.811 235.967 48.2098C234.964 45.6085 234.463 42.5159 234.463 38.932C234.463 35.4058 234.992 32.3422 236.05 29.7409C237.164 27.1397 238.668 25.0009 240.561 23.3245C242.51 21.5903 244.794 20.3186 247.411 19.5093C250.085 18.6423 252.981 18.2087 256.099 18.2087ZM261.279 30.7814C260.889 30.5502 260.304 30.319 259.524 30.0877C258.8 29.8565 257.881 29.7409 256.768 29.7409C254.039 29.7409 251.978 30.5502 250.586 32.1687C249.249 33.7295 248.581 35.9839 248.581 38.932C248.581 42.2847 249.249 44.7125 250.586 46.2155C251.978 47.6606 253.732 48.3832 255.849 48.3832C258.132 48.3832 259.942 47.834 261.279 46.7357V30.7814Z" fill="#1F2B3A"/>
<path d="M323.797 61.5628C323.24 61.7362 322.349 61.9096 321.124 62.0831C319.954 62.2565 318.729 62.3432 317.448 62.3432C316.223 62.3432 315.109 62.2565 314.107 62.0831C313.16 61.9096 312.353 61.5628 311.684 61.0426C311.016 60.5223 310.487 59.8286 310.097 58.9616C309.763 58.0367 309.596 56.8517 309.596 55.4065V36.1573C309.596 33.7873 309.011 32.1398 307.841 31.2149C306.728 30.2323 305.335 29.7409 303.665 29.7409C302.551 29.7409 301.493 29.8854 300.49 30.1744C299.488 30.4635 298.68 30.8103 298.067 31.2149V61.5628C297.511 61.7362 296.619 61.9096 295.394 62.0831C294.225 62.2565 293 62.3432 291.719 62.3432C290.493 62.3432 289.38 62.2565 288.377 62.0831C287.43 61.9096 286.623 61.5628 285.954 61.0426C285.286 60.5223 284.757 59.8286 284.367 58.9616C284.033 58.0367 283.866 56.8517 283.866 55.4065V5.11578C284.479 5.00017 285.37 4.85566 286.539 4.68224C287.764 4.45102 288.99 4.33541 290.215 4.33541C291.44 4.33541 292.526 4.42212 293.473 4.59553C294.475 4.76895 295.311 5.11578 295.979 5.63603C296.647 6.15628 297.149 6.87885 297.483 7.80373C297.873 8.67082 298.067 9.82693 298.067 11.2721V19.7695C298.791 19.4804 299.877 19.1625 301.325 18.8157C302.829 18.411 304.472 18.2087 306.254 18.2087C311.768 18.2087 316.056 19.6539 319.119 22.5441C322.238 25.3766 323.797 29.6253 323.797 35.2902V61.5628Z" fill="#1F2B3A"/>
<path d="M346.767 47.1693C346.767 48.6722 347.213 49.7416 348.104 50.3775C349.05 51.0133 350.359 51.3312 352.03 51.3312C352.865 51.3312 353.728 51.2734 354.62 51.1578C355.511 50.9844 356.29 50.7821 356.959 50.5509C357.46 51.1867 357.878 51.9093 358.212 52.7186C358.602 53.47 358.796 54.3949 358.796 55.4932C358.796 57.6898 357.989 59.4818 356.374 60.8691C354.814 62.2565 352.03 62.9501 348.02 62.9501C343.119 62.9501 339.332 61.794 336.659 59.4818C334.041 57.1696 332.733 53.4122 332.733 48.2098V11.0986C333.345 10.9252 334.208 10.7518 335.322 10.5784C336.492 10.3472 337.717 10.2316 338.998 10.2316C341.448 10.2316 343.342 10.694 344.679 11.6189C346.071 12.486 346.767 14.3647 346.767 17.2549V22.8043H357.71C358.045 23.4401 358.351 24.2494 358.629 25.2321C358.964 26.157 359.131 27.1975 359.131 28.3536C359.131 30.3768 358.685 31.8508 357.794 32.7757C356.959 33.6428 355.817 34.0763 354.369 34.0763H346.767V47.1693Z" fill="#1F2B3A"/>
<path d="M363.507 54.6262C363.507 52.1983 364.231 50.1751 365.679 48.5566C367.127 46.938 369.104 46.1287 371.61 46.1287C374.117 46.1287 376.094 46.938 377.542 48.5566C378.99 50.1751 379.714 52.1983 379.714 54.6262C379.714 57.054 378.99 59.0772 377.542 60.6957C376.094 62.3143 374.117 63.1236 371.61 63.1236C369.104 63.1236 367.127 62.3143 365.679 60.6957C364.231 59.0772 363.507 57.054 363.507 54.6262Z" fill="#1F2B3A"/>
<path d="M385.585 7.80373C385.585 5.60713 386.281 3.75735 387.673 2.25441C389.121 0.75147 391.015 0 393.354 0C395.693 0 397.559 0.75147 398.951 2.25441C400.399 3.75735 401.123 5.60713 401.123 7.80373C401.123 10.0003 400.399 11.8501 398.951 13.3531C397.559 14.856 395.693 15.6075 393.354 15.6075C391.015 15.6075 389.121 14.856 387.673 13.3531C386.281 11.8501 385.585 10.0003 385.585 7.80373ZM400.455 61.5628C399.842 61.6784 398.923 61.8229 397.698 61.9963C396.528 62.2276 395.331 62.3432 394.106 62.3432C392.88 62.3432 391.767 62.2565 390.764 62.0831C389.817 61.9096 389.01 61.5628 388.342 61.0426C387.673 60.5223 387.144 59.8286 386.754 58.9616C386.42 58.0367 386.253 56.8517 386.253 55.4065V20.1163C386.866 20.0007 387.757 19.8562 388.926 19.6828C390.152 19.4515 391.377 19.3359 392.602 19.3359C393.827 19.3359 394.913 19.4226 395.86 19.596C396.862 19.7695 397.698 20.1163 398.366 20.6365C399.034 21.1568 399.536 21.8794 399.87 22.8043C400.26 23.6713 400.455 24.8274 400.455 26.2726V61.5628Z" fill="#1F2B3A"/>
<path d="M451.515 40.5794C451.515 44.1634 450.986 47.3716 449.928 50.204C448.87 52.9787 447.366 55.3198 445.417 57.2274C443.524 59.135 441.24 60.5801 438.567 61.5628C435.894 62.5455 432.914 63.0369 429.628 63.0369C426.343 63.0369 423.363 62.5166 420.69 61.4761C418.017 60.4356 415.705 58.9616 413.756 57.054C411.863 55.0886 410.387 52.7186 409.329 49.9439C408.27 47.1693 407.741 44.0478 407.741 40.5794C407.741 37.1689 408.27 34.0763 409.329 31.3017C410.387 28.527 411.863 26.1859 413.756 24.2783C415.705 22.3129 418.017 20.81 420.69 19.7695C423.363 18.729 426.343 18.2087 429.628 18.2087C432.914 18.2087 435.894 18.7579 438.567 19.8562C441.24 20.8967 443.524 22.3996 445.417 24.365C447.366 26.2726 448.87 28.6137 449.928 31.3884C450.986 34.163 451.515 37.2267 451.515 40.5794ZM422.277 40.5794C422.277 44.1056 422.917 46.8224 424.198 48.73C425.535 50.5798 427.373 51.5047 429.712 51.5047C432.051 51.5047 433.833 50.5509 435.058 48.6433C436.339 46.7357 436.98 44.0478 436.98 40.5794C436.98 37.1111 436.339 34.4521 435.058 32.6023C433.777 30.6947 431.967 29.7409 429.628 29.7409C427.289 29.7409 425.479 30.6947 424.198 32.6023C422.917 34.4521 422.277 37.1111 422.277 40.5794Z" fill="#1F2B3A"/>
</svg>
