<svg viewBox="0 0 454 78" fill="none" xmlns="http://www.w3.org/2000/svg">
<path d="M2 37.2758V64.5585C2 65.387 2.67157 66.0585 3.5 66.0585H55.8432C56.6716 66.0585 57.3432 65.387 57.3432 64.5585V11.2331C57.3432 10.074 56.0847 9.35291 55.0847 9.93902L38.0938 19.898C37.8638 20.0328 37.6019 20.1039 37.3353 20.1039H17.6552C17.2309 20.1039 16.8265 20.2836 16.5421 20.5985L2.38685 36.2703C2.13785 36.546 2 36.9043 2 37.2758Z" fill="#E86279" stroke="white" stroke-width="4"/>
<path d="M2 47.2637V64.5622C2 65.3906 2.67157 66.0622 3.5 66.0622H55.8432C56.6716 66.0622 57.3432 65.3906 57.3432 64.5622V27.4422C57.3432 26.331 56.1772 25.6056 55.1804 26.0965L37.9736 34.5717C37.8206 34.6471 37.656 34.6958 37.4866 34.7158L18.4515 36.9621C18.2472 36.9862 18.05 37.052 17.8723 37.1556L2.74498 45.9676C2.28371 46.2363 2 46.7299 2 47.2637Z" fill="#9BAEC7"/>
<path d="M2 56.6512V64.557C2 65.3854 2.67157 66.057 3.5 66.057H55.8432C56.6716 66.057 57.3432 65.3854 57.3432 64.557V46.1498C57.3432 45.1571 56.3962 44.4382 55.4399 44.705L37.9081 49.5984C37.7981 49.6291 37.6848 49.6472 37.5707 49.6522L17.1992 50.5472C17.0596 50.5533 16.9216 50.5789 16.7891 50.6232L3.02407 55.2287C2.41237 55.4333 2 56.0061 2 56.6512Z" fill="#FFBA5B"/>
<path d="M99.9375 63.0369C96.6516 63.0369 93.5886 62.5744 90.7483 61.6495C87.9637 60.6668 85.5132 59.2217 83.3969 57.3141C81.3363 55.4065 79.6934 53.0076 78.4682 50.1173C77.2986 47.2271 76.7139 43.8454 76.7139 39.9725C76.7139 36.1573 77.2986 32.8913 78.4682 30.1744C79.6934 27.3998 81.2806 25.1454 83.2298 23.4112C85.1791 21.6192 87.4068 20.3186 89.9129 19.5093C92.419 18.6423 94.9809 18.2087 97.5984 18.2087C100.55 18.2087 103.223 18.6712 105.618 19.596C108.069 20.5209 110.157 21.7927 111.883 23.4112C113.666 25.0298 115.03 26.9662 115.977 29.2207C116.979 31.4751 117.48 33.9318 117.48 36.5909C117.48 38.5562 116.951 40.0592 115.893 41.0997C114.835 42.1402 113.359 42.8049 111.466 43.094L90.8318 46.3022C91.4444 48.2097 92.6975 49.6549 94.591 50.6376C96.4846 51.5625 98.6566 52.0249 101.107 52.0249C103.39 52.0249 105.535 51.7359 107.539 51.1578C109.6 50.522 111.271 49.7994 112.552 48.9901C113.443 49.5682 114.195 50.3775 114.807 51.418C115.42 52.4585 115.726 53.5568 115.726 54.7129C115.726 57.3141 114.557 59.2506 112.218 60.5223C110.435 61.505 108.431 62.1698 106.203 62.5166C103.975 62.8634 101.887 63.0369 99.9375 63.0369ZM97.5984 28.9605C96.2618 28.9605 95.0923 29.1918 94.0898 29.6542C93.143 30.1166 92.3634 30.7236 91.7507 31.4751C91.1381 32.1687 90.6647 32.978 90.3306 33.9029C90.0521 34.77 89.8851 35.666 89.8294 36.5909L104.114 34.163C103.947 33.0069 103.335 31.8508 102.277 30.6947C101.218 29.5386 99.659 28.9605 97.5984 28.9605Z" fill="white"/>
<path d="M122.562 40.5794C122.562 36.7643 123.119 33.4694 124.233 30.6947C125.347 27.8622 126.878 25.5211 128.827 23.6713C130.832 21.8216 133.143 20.4631 135.761 19.596C138.434 18.6712 141.302 18.2087 144.365 18.2087C145.479 18.2087 146.565 18.3243 147.623 18.5556C148.682 18.729 149.545 18.9602 150.213 19.2492V5.20249C150.77 5.02907 151.661 4.85566 152.886 4.68224C154.112 4.45102 155.365 4.33541 156.646 4.33541C157.871 4.33541 158.957 4.42212 159.904 4.59553C160.906 4.76895 161.741 5.11578 162.41 5.63603C163.078 6.15628 163.579 6.87885 163.913 7.80373C164.248 8.67082 164.415 9.82693 164.415 11.2721V52.3717C164.415 55.0886 163.189 57.2563 160.739 58.8749C159.124 59.9732 157.035 60.927 154.474 61.7362C151.912 62.6033 148.96 63.0369 145.618 63.0369C141.999 63.0369 138.741 62.5166 135.845 61.4761C133.004 60.4356 130.582 58.9327 128.577 56.9673C126.627 55.0019 125.124 52.6608 124.066 49.9439C123.063 47.1693 122.562 44.0478 122.562 40.5794ZM146.287 29.7409C143.279 29.7409 140.968 30.6369 139.353 32.4289C137.738 34.2208 136.931 36.9377 136.931 40.5794C136.931 44.1634 137.682 46.8802 139.186 48.73C140.69 50.522 142.862 51.418 145.702 51.418C146.704 51.418 147.596 51.2734 148.375 50.9844C149.211 50.6376 149.851 50.2618 150.297 49.8572V30.7814C149.183 30.0877 147.846 29.7409 146.287 29.7409Z" fill="white"/>
<path d="M207.515 49.0768C207.515 53.47 205.928 56.9095 202.753 59.3951C199.579 61.8807 194.901 63.1236 188.719 63.1236C186.38 63.1236 184.208 62.9501 182.203 62.6033C180.198 62.2565 178.472 61.7362 177.024 61.0426C175.631 60.2911 174.517 59.3662 173.682 58.2679C172.902 57.1696 172.513 55.869 172.513 54.366C172.513 52.9787 172.791 51.8226 173.348 50.8977C173.905 49.915 174.573 49.1057 175.353 48.4699C176.968 49.3948 178.806 50.2329 180.866 50.9844C182.983 51.6781 185.405 52.0249 188.134 52.0249C189.861 52.0249 191.169 51.7648 192.061 51.2445C193.007 50.7243 193.481 50.0306 193.481 49.1635C193.481 48.3543 193.146 47.7184 192.478 47.256C191.81 46.7935 190.696 46.4178 189.137 46.1287L186.631 45.6085C181.785 44.6258 178.165 43.094 175.771 41.013C173.431 38.8742 172.262 35.8394 172.262 31.9086C172.262 29.7698 172.707 27.8333 173.599 26.0992C174.49 24.365 175.743 22.9199 177.358 21.7638C178.973 20.6076 180.894 19.7117 183.122 19.0758C185.405 18.4399 187.911 18.122 190.64 18.122C192.701 18.122 194.622 18.2954 196.404 18.6423C198.242 18.9313 199.83 19.3937 201.166 20.0296C202.503 20.6654 203.561 21.5036 204.341 22.5441C205.12 23.5268 205.51 24.7118 205.51 26.0992C205.51 27.4287 205.26 28.5848 204.758 29.5675C204.313 30.4924 203.728 31.2728 203.004 31.9086C202.558 31.6196 201.89 31.3306 200.999 31.0415C200.108 30.6947 199.133 30.4057 198.075 30.1744C197.017 29.8854 195.931 29.6542 194.817 29.4808C193.759 29.3074 192.784 29.2207 191.893 29.2207C190.056 29.2207 188.635 29.4519 187.633 29.9143C186.631 30.319 186.129 30.9837 186.129 31.9086C186.129 32.5445 186.408 33.0647 186.965 33.4694C187.522 33.874 188.58 34.2497 190.139 34.5966L192.729 35.2035C198.075 36.4752 201.862 38.2383 204.09 40.4927C206.373 42.6893 207.515 45.5507 207.515 49.0768Z" fill="white"/>
<path d="M214.047 7.80373C214.047 5.60713 214.743 3.75735 216.135 2.25441C217.583 0.75147 219.477 0 221.816 0C224.155 0 226.021 0.75147 227.413 2.25441C228.861 3.75735 229.585 5.60713 229.585 7.80373C229.585 10.0003 228.861 11.8501 227.413 13.3531C226.021 14.856 224.155 15.6075 221.816 15.6075C219.477 15.6075 217.583 14.856 216.135 13.3531C214.743 11.8501 214.047 10.0003 214.047 7.80373ZM228.916 61.5628C228.304 61.6784 227.385 61.8229 226.16 61.9963C224.99 62.2276 223.793 62.3432 222.568 62.3432C221.342 62.3432 220.229 62.2565 219.226 62.0831C218.279 61.9096 217.472 61.5628 216.803 61.0426C216.135 60.5223 215.606 59.8286 215.216 58.9616C214.882 58.0367 214.715 56.8517 214.715 55.4065V20.1163C215.328 20.0007 216.219 19.8562 217.388 19.6828C218.613 19.4515 219.839 19.3359 221.064 19.3359C222.289 19.3359 223.375 19.4226 224.322 19.596C225.324 19.7695 226.16 20.1163 226.828 20.6365C227.496 21.1568 227.998 21.8794 228.332 22.8043C228.722 23.6713 228.916 24.8274 228.916 26.2726V61.5628Z" fill="white"/>
<path d="M257.756 18.2087C260.931 18.2087 263.799 18.6423 266.361 19.5093C268.978 20.3186 271.178 21.388 272.96 22.7175C274.074 23.5268 274.937 24.4228 275.55 25.4055C276.218 26.3882 276.552 27.6599 276.552 29.2207V59.5685C276.552 62.6322 275.995 65.2624 274.881 67.459C273.768 69.7134 272.236 71.5632 270.287 73.0083C268.393 74.5112 266.138 75.6095 263.52 76.3032C260.958 76.9969 258.202 77.3437 255.25 77.3437C250.182 77.3437 246.2 76.6211 243.304 75.176C240.408 73.7887 238.96 71.5053 238.96 68.326C238.96 66.9965 239.211 65.8115 239.712 64.771C240.269 63.7883 240.881 63.0369 241.55 62.5166C243.165 63.4415 244.975 64.2219 246.98 64.8577C249.04 65.4936 251.157 65.8115 253.329 65.8115C256.336 65.8115 258.731 65.2913 260.513 64.2508C262.295 63.2103 263.186 61.5339 263.186 59.2217V57.8344C260.903 58.8749 258.118 59.3951 254.832 59.3951C252.326 59.3951 249.931 59.0194 247.648 58.2679C245.42 57.4586 243.443 56.2447 241.717 54.6262C240.046 52.9498 238.682 50.811 237.623 48.2098C236.621 45.6085 236.12 42.5159 236.12 38.932C236.12 35.4058 236.649 32.3422 237.707 29.7409C238.821 27.1397 240.324 25.0009 242.218 23.3245C244.167 21.5903 246.451 20.3186 249.068 19.5093C251.741 18.6423 254.637 18.2087 257.756 18.2087ZM262.935 30.7814C262.546 30.5502 261.961 30.319 261.181 30.0877C260.457 29.8565 259.538 29.7409 258.424 29.7409C255.695 29.7409 253.635 30.5502 252.243 32.1687C250.906 33.7295 250.238 35.9839 250.238 38.932C250.238 42.2847 250.906 44.7125 252.243 46.2155C253.635 47.6606 255.389 48.3832 257.505 48.3832C259.789 48.3832 261.599 47.834 262.935 46.7357V30.7814Z" fill="white"/>
<path d="M325.454 61.5628C324.897 61.7362 324.006 61.9096 322.781 62.0831C321.611 62.2565 320.386 62.3432 319.105 62.3432C317.88 62.3432 316.766 62.2565 315.764 62.0831C314.817 61.9096 314.009 61.5628 313.341 61.0426C312.673 60.5223 312.144 59.8286 311.754 58.9616C311.42 58.0367 311.253 56.8517 311.253 55.4065V36.1573C311.253 33.7873 310.668 32.1398 309.498 31.2149C308.384 30.2323 306.992 29.7409 305.321 29.7409C304.207 29.7409 303.149 29.8854 302.147 30.1744C301.144 30.4635 300.337 30.8103 299.724 31.2149V61.5628C299.167 61.7362 298.276 61.9096 297.051 62.0831C295.881 62.2565 294.656 62.3432 293.375 62.3432C292.15 62.3432 291.036 62.2565 290.034 62.0831C289.087 61.9096 288.28 61.5628 287.611 61.0426C286.943 60.5223 286.414 59.8286 286.024 58.9616C285.69 58.0367 285.523 56.8517 285.523 55.4065V5.11578C286.135 5.00017 287.026 4.85566 288.196 4.68224C289.421 4.45102 290.646 4.33541 291.872 4.33541C293.097 4.33541 294.183 4.42212 295.13 4.59553C296.132 4.76895 296.967 5.11578 297.636 5.63603C298.304 6.15628 298.805 6.87885 299.139 7.80373C299.529 8.67082 299.724 9.82693 299.724 11.2721V19.7695C300.448 19.4804 301.534 19.1625 302.982 18.8157C304.486 18.411 306.129 18.2087 307.911 18.2087C313.424 18.2087 317.713 19.6539 320.776 22.5441C323.895 25.3766 325.454 29.6253 325.454 35.2902V61.5628Z" fill="white"/>
<path d="M348.424 47.1693C348.424 48.6722 348.869 49.7416 349.76 50.3775C350.707 51.0133 352.016 51.3312 353.687 51.3312C354.522 51.3312 355.385 51.2734 356.276 51.1578C357.167 50.9844 357.947 50.7821 358.615 50.5509C359.117 51.1867 359.534 51.9093 359.868 52.7186C360.258 53.47 360.453 54.3949 360.453 55.4932C360.453 57.6898 359.646 59.4818 358.031 60.8691C356.471 62.2565 353.687 62.9501 349.677 62.9501C344.776 62.9501 340.989 61.794 338.316 59.4818C335.698 57.1696 334.389 53.4122 334.389 48.2098V11.0986C335.002 10.9252 335.865 10.7518 336.979 10.5784C338.149 10.3472 339.374 10.2316 340.655 10.2316C343.105 10.2316 344.999 10.694 346.335 11.6189C347.728 12.486 348.424 14.3647 348.424 17.2549V22.8043H359.367C359.701 23.4401 360.008 24.2494 360.286 25.2321C360.62 26.157 360.787 27.1975 360.787 28.3536C360.787 30.3768 360.342 31.8508 359.451 32.7757C358.615 33.6428 357.474 34.0763 356.026 34.0763H348.424V47.1693Z" fill="white"/>
<path d="M365.164 54.6262C365.164 52.1983 365.888 50.1751 367.336 48.5566C368.784 46.938 370.761 46.1287 373.267 46.1287C375.773 46.1287 377.75 46.938 379.198 48.5566C380.646 50.1751 381.37 52.1983 381.37 54.6262C381.37 57.054 380.646 59.0772 379.198 60.6957C377.75 62.3143 375.773 63.1236 373.267 63.1236C370.761 63.1236 368.784 62.3143 367.336 60.6957C365.888 59.0772 365.164 57.054 365.164 54.6262Z" fill="white"/>
<path d="M387.242 7.80373C387.242 5.60713 387.938 3.75735 389.33 2.25441C390.778 0.75147 392.672 0 395.011 0C397.35 0 399.215 0.75147 400.608 2.25441C402.056 3.75735 402.78 5.60713 402.78 7.80373C402.78 10.0003 402.056 11.8501 400.608 13.3531C399.215 14.856 397.35 15.6075 395.011 15.6075C392.672 15.6075 390.778 14.856 389.33 13.3531C387.938 11.8501 387.242 10.0003 387.242 7.80373ZM402.111 61.5628C401.499 61.6784 400.58 61.8229 399.355 61.9963C398.185 62.2276 396.988 62.3432 395.762 62.3432C394.537 62.3432 393.423 62.2565 392.421 62.0831C391.474 61.9096 390.667 61.5628 389.998 61.0426C389.33 60.5223 388.801 59.8286 388.411 58.9616C388.077 58.0367 387.91 56.8517 387.91 55.4065V20.1163C388.522 20.0007 389.414 19.8562 390.583 19.6828C391.808 19.4515 393.034 19.3359 394.259 19.3359C395.484 19.3359 396.57 19.4226 397.517 19.596C398.519 19.7695 399.355 20.1163 400.023 20.6365C400.691 21.1568 401.192 21.8794 401.527 22.8043C401.916 23.6713 402.111 24.8274 402.111 26.2726V61.5628Z" fill="white"/>
<path d="M453.172 40.5794C453.172 44.1634 452.643 47.3716 451.585 50.204C450.527 52.9787 449.023 55.3198 447.074 57.2274C445.18 59.135 442.897 60.5801 440.224 61.5628C437.55 62.5455 434.571 63.0369 431.285 63.0369C427.999 63.0369 425.02 62.5166 422.347 61.4761C419.673 60.4356 417.362 58.9616 415.413 57.054C413.519 55.0886 412.043 52.7186 410.985 49.9439C409.927 47.1693 409.398 44.0478 409.398 40.5794C409.398 37.1689 409.927 34.0763 410.985 31.3017C412.043 28.527 413.519 26.1859 415.413 24.2783C417.362 22.3129 419.673 20.81 422.347 19.7695C425.02 18.729 427.999 18.2087 431.285 18.2087C434.571 18.2087 437.55 18.7579 440.224 19.8562C442.897 20.8967 445.18 22.3996 447.074 24.365C449.023 26.2726 450.527 28.6137 451.585 31.3884C452.643 34.163 453.172 37.2267 453.172 40.5794ZM423.934 40.5794C423.934 44.1056 424.574 46.8224 425.855 48.73C427.192 50.5798 429.03 51.5047 431.369 51.5047C433.708 51.5047 435.49 50.5509 436.715 48.6433C437.996 46.7357 438.636 44.0478 438.636 40.5794C438.636 37.1111 437.996 34.4521 436.715 32.6023C435.434 30.6947 433.624 29.7409 431.285 29.7409C428.946 29.7409 427.136 30.6947 425.855 32.6023C424.574 34.4521 423.934 37.1111 423.934 40.5794Z" fill="white"/>
<path d="M2 37.2758V64.5585C2 65.387 2.67157 66.0585 3.5 66.0585H55.8432C56.6716 66.0585 57.3432 65.387 57.3432 64.5585V11.2331C57.3432 10.074 56.0847 9.35291 55.0847 9.93902L38.0938 19.898C37.8638 20.0328 37.6019 20.1039 37.3353 20.1039H17.6552C17.2309 20.1039 16.8265 20.2836 16.5421 20.5985L2.38685 36.2703C2.13785 36.546 2 36.9043 2 37.2758Z" stroke="white" stroke-width="4"/>
</svg>
